<?xml version="1.0" encoding="iso-8859-1"?>
<!-- Generator: Adobe Illustrator 19.0.0, SVG Export Plug-In . SVG Version: 6.00 Build 0)  -->
<svg version="1.1" id="Capa_1" xmlns="http://www.w3.org/2000/svg" xmlns:xlink="http://www.w3.org/1999/xlink" x="0px" y="0px"
	 viewBox="0 0 494.24 494.24" style="enable-background:new 0 0 494.24 494.24;" xml:space="preserve">
<g>
	<g>
		<g>
			<path style="fill:#4B5D63;" d="M421.846,59.04l-1.045,1.567l-66.351,50.678h-2.09c-1.84-12.798-5.907-25.176-12.016-36.571
				c16.008-26.4,50.386-34.825,76.785-18.817c0.005,0.003,0.01,0.006,0.015,0.009L421.846,59.04z"/>
			<path style="fill:#4B5D63;" d="M421.846,59.04c10.655,7.914,18.08,19.422,20.898,32.392h-1.045l-82.025,56.424h-5.747v-17.763
				c0.02-6.13-0.504-12.249-1.567-18.286h2.09l66.351-50.678L421.846,59.04z"/>
		</g>
		<path style="fill:#00EFD1;" d="M357.584,437.293c11.19,11.253,11.139,29.447-0.115,40.637
			c-11.253,11.19-29.447,11.139-40.637-0.115c-5.326-5.356-8.329-12.594-8.359-20.147c-0.291-15.578,12.101-28.443,27.68-28.735
			c0.352-0.007,0.703-0.007,1.055,0C344.841,428.903,352.172,431.911,357.584,437.293z"/>
		<path style="fill:#EDB288;" d="M113.078,244.509h-1.567c-13.561,0-24.555-10.994-24.555-24.555l0,0
			c0.032-6.393,2.454-12.544,6.792-17.241c4.198-3.82,9.506-6.199,15.151-6.792v17.241
			C108.886,223.751,110.292,234.293,113.078,244.509z"/>
		<path style="fill:#F7CAA5;" d="M108.899,196.444V153.08c7.314,2.09,137.404,33.959,193.306-62.694
			c8.18,26.965,26.803,49.539,51.722,62.694v60.604c-0.153,10.373-1.379,20.703-3.657,30.824
			c-5.516,21.232-16.715,40.558-32.392,55.902c-12.365,12.281-27.126,21.884-43.363,28.212c-13.736,5.011-28.221,7.66-42.841,7.837
			c-13.126-0.174-26.153-2.286-38.661-6.269c-39.381-13.265-69.431-45.476-79.935-85.682c-2.74-10.047-4.146-20.411-4.18-30.824
			V196.444z"/>
		<g>
			<path style="fill:#EDB288;" d="M370.646,203.235c4.485,4.645,7.091,10.787,7.314,17.241c0,13.561-10.994,24.555-24.555,24.555
				h-3.135c2.278-10.121,3.504-20.451,3.657-30.824v-18.286C360.177,196.359,366.083,198.943,370.646,203.235z"/>
			<path style="fill:#EDB288;" d="M275.56,359.97v1.045l-43.363,41.796l-39.706-41.796v-30.824
				c12.508,3.983,25.536,6.096,38.661,6.269c14.62-0.176,29.105-2.826,42.841-7.837l1.045,2.612L275.56,359.97z"/>
		</g>
		<g>
			<path style="fill:#4B5D63;" d="M442.744,91.431c3.219,14.117,0.781,28.932-6.792,41.273
				c-16.192,26.157-50.353,34.523-76.8,18.808h-5.224v-3.657h5.747l82.025-55.902L442.744,91.431z"/>
			<path style="fill:#4B5D63;" d="M340.344,74.713c6.168,11.557,10.236,24.116,12.016,37.094c1.063,6.037,1.588,12.156,1.567,18.286
				v22.988c-24.919-13.155-43.543-35.729-51.722-62.694c-55.902,96.653-185.992,64.784-193.306,62.694v-22.988
				c0.066-7.733,0.941-15.437,2.612-22.988c0,0,117.551,35.527,185.469-79.412h0.522C315.816,39.152,330.634,55.416,340.344,74.713z
				"/>
			<path style="fill:#4B5D63;" d="M297.503,27.17h-0.522c-67.918,114.939-185.469,79.412-185.469,79.412
				c2.764-15.469,8.628-30.219,17.241-43.363c27.167,4.18,81.502,3.657,128.522-49.633v-3.135
				C271.583,13.549,285.213,19.214,297.503,27.17z"/>
			<path style="fill:#4B5D63;" d="M257.797,10.452v3.657c-47.02,53.29-101.355,53.812-128.522,49.633
				c4.484-7.33,9.738-14.161,15.673-20.376c23.042-22.893,54.246-35.676,86.727-35.527C240.443,7.905,249.188,8.78,257.797,10.452z"
				/>
		</g>
	</g>
	<g>
		<path style="fill:#083863;" d="M278.695,447.219h-10.449c-4.328,0-7.837-3.509-7.837-7.837s3.509-7.837,7.837-7.837h10.449
			c4.328,0,7.837,3.509,7.837,7.837S283.023,447.219,278.695,447.219z"/>
		<path style="fill:#083863;" d="M278.695,478.566h-10.449c-4.328,0-7.837-3.509-7.837-7.837s3.509-7.837,7.837-7.837h10.449
			c4.328,0,7.837,3.509,7.837,7.837S283.023,478.566,278.695,478.566z"/>
		<path style="fill:#083863;" d="M179.429,241.374c-7.632,0.03-14.963-2.977-20.376-8.359c-5.484-5.344-8.51-12.72-8.359-20.376
			v-5.224c0-4.328,3.509-7.837,7.837-7.837s7.837,3.509,7.837,7.837v5.224c-0.152,3.509,1.175,6.92,3.657,9.404
			c2.625,2.258,5.944,3.548,9.404,3.657c7.214,0,13.061-5.848,13.061-13.061v-5.224c0-4.328,3.509-7.837,7.837-7.837
			s7.837,3.509,7.837,7.837v5.224C208.164,228.509,195.299,241.374,179.429,241.374z"/>
		<path style="fill:#083863;" d="M283.919,241.374c-7.632,0.03-14.963-2.977-20.376-8.359c-5.484-5.344-8.51-12.72-8.359-20.376
			v-5.224c0-4.328,3.509-7.837,7.837-7.837c4.328,0,7.837,3.509,7.837,7.837v5.224c-0.152,3.509,1.175,6.92,3.657,9.404
			c2.625,2.258,5.944,3.548,9.404,3.657c7.214,0,13.061-5.848,13.061-13.061v-5.224c0-4.328,3.509-7.837,7.837-7.837
			c4.328,0,7.837,3.509,7.837,7.837v5.224C312.654,228.509,299.789,241.374,283.919,241.374z"/>
		<path style="fill:#083863;" d="M450.058,89.864c-3.237-14.742-11.56-27.874-23.51-37.094l-5.224-3.657
			c-26.025-15.481-59.326-10.692-79.935,11.494c-18.281-29.387-47.682-50.119-81.502-57.469
			c-43.567-9.722-89.082,3.48-120.686,35.004c-5.953,5.958-11.372,12.426-16.196,19.331c-1.163,1.188-2.054,2.614-2.612,4.18
			c-8.54,13.371-14.396,28.277-17.241,43.886c-1.846,8.063-2.896,16.287-3.135,24.555v60.082c-4.568,1.363-8.707,3.882-12.016,7.314
			c-12.61,13.093-12.218,33.93,0.876,46.54c4.916,4.735,11.183,7.824,17.933,8.84c11.861,37.678,40.074,68.003,76.8,82.547v16.196
			h-51.2c-50.678,0-89.861,42.841-89.861,92.996v26.122c0,4.328,3.509,7.837,7.837,7.837s7.837-3.509,7.837-7.837v-26.122
			c-0.3-40.95,32.208-74.619,73.143-75.755v16.718c-9.119,1.124-17.497,5.592-23.51,12.539
			c-8.414,8.466-13.114,19.933-13.061,31.869v52.245c0,4.702,1.045,10.449,5.747,10.449h14.629c4.328,0,7.837-3.509,7.837-7.837
			s-3.509-7.837-7.837-7.837h-4.702v-47.02c-0.285-7.639,2.327-15.104,7.314-20.898c5.414-5.757,12.995-8.979,20.898-8.882
			c16.242,0.285,29.26,13.535,29.257,29.78v47.02h-11.494c-4.328,0-7.837,3.509-7.837,7.837s3.509,7.837,7.837,7.837h18.808
			c4.18,0,8.359-5.747,8.359-10.449v-52.245c0.341-21.765-15.145-40.569-36.571-44.408v-18.286h41.796l36.571,38.661v64.784
			c0,4.328,3.509,7.837,7.837,7.837c4.328,0,7.837-3.509,7.837-7.837v-64.261l37.616-39.184h51.2v54.335l0,0
			c-16.996,3.673-29.16,18.66-29.257,36.049c0,20.198,16.374,36.571,36.571,36.571c20.198,0,36.571-16.374,36.571-36.571
			c0.14-9.752-3.622-19.157-10.449-26.122c-5.023-4.986-11.368-8.43-18.286-9.927h0.522v-52.245
			c36.571,4.702,67.918,36.571,67.918,75.233v26.122c0,4.328,3.509,7.837,7.837,7.837s7.837-3.509,7.837-7.837v-26.122
			c-0.846-51.209-42.306-92.437-93.518-92.996h-52.767v-18.286c15.032-6.384,28.691-15.608,40.229-27.167
			c14.925-14.9,26.037-33.18,32.392-53.29c17.842-1.303,31.25-16.822,29.947-34.664c-0.572-7.838-3.974-15.2-9.572-20.715
			c-4.27-3.613-9.255-6.284-14.629-7.837V161.44c8.468,3.489,17.492,5.435,26.645,5.747c22.41-0.007,43.197-11.687,54.857-30.824
			C451.128,122.401,453.751,105.725,450.058,89.864z M361.242,136.884v-6.792c0.087-4.708-0.088-9.417-0.522-14.106l61.127-46.498
			c5.075,5.218,8.992,11.45,11.494,18.286L361.242,136.884z M408.262,60.084l-50.155,38.661c-2.32-7.995-5.112-15.845-8.359-23.51
			C363.239,57.019,387.625,50.704,408.262,60.084z M333.029,77.325l1.045,1.567c5.349,10.659,8.881,22.137,10.449,33.959
			c0.868,5.704,1.217,11.474,1.045,17.241v8.882c-16.348-13.134-28.81-30.473-36.049-50.155c-1.01-3.135-3.586-5.513-6.792-6.269
			c-3.353-0.304-6.59,1.314-8.359,4.18c-47.543,82.025-152.555,65.829-178.678,60.082v-16.718c0.264-4.554,0.787-9.089,1.567-13.584
			c11.717,2.165,23.612,3.214,35.527,3.135c41.273,0,103.445-13.061,146.808-81.502C313.69,48.364,325.151,61.796,333.029,77.325z
			 M132.931,72.101l16.196,1.045c30.824,0,74.71-9.927,113.371-53.29c8.308,2.539,16.355,5.863,24.033,9.927
			c-55.38,87.249-140.539,76.8-165.616,71.576C123.373,91.039,127.427,81.168,132.931,72.101z M231.674,15.676h12.539
			C218.017,43.489,181.031,58.55,142.858,56.95l7.837-8.359C172.236,27.285,201.378,15.44,231.674,15.676z M94.793,220.476
			c-0.221-4.239,1.287-8.387,4.18-11.494c0.522-0.522,1.045-1.045,1.045-1.567v6.269c0.098,7.213,0.974,14.395,2.612,21.42
			C97.528,232.039,94.518,226.422,94.793,220.476z M267.201,357.88l-35.527,33.959l-32.392-33.959v-17.763
			c10.259,2.502,20.787,3.73,31.347,3.657c12.348,0.115,24.654-1.467,36.571-4.702V357.88z M358.107,457.668
			c0.118,5.449-1.952,10.717-5.747,14.629c-8.363,8.368-21.925,8.372-30.293,0.009c-0.003-0.003-0.006-0.006-0.009-0.009
			c-3.795-3.911-5.865-9.18-5.747-14.629c-0.003-11.629,9.272-21.137,20.898-21.42C348.835,436.531,358.11,446.039,358.107,457.668
			L358.107,457.668z M342.433,242.419c-5.142,19.855-15.621,37.923-30.302,52.245c-11.334,11.922-25.285,21.044-40.751,26.645
			c-24.573,8.98-51.468,9.349-76.278,1.045c-36.98-11.907-65.34-41.843-75.233-79.412c-2.706-9.519-4.112-19.361-4.18-29.257
			v-50.678c16.359,3.127,32.977,4.702,49.633,4.702c42.318,0,98.22-10.971,134.269-60.082c9.561,21.209,25.677,38.789,45.976,50.155
			v55.902C345.585,223.349,344.534,232.986,342.433,242.419L342.433,242.419z M364.899,208.982c3.032,3.054,4.724,7.19,4.702,11.494
			c-0.101,6.675-3.936,12.729-9.927,15.673c1.041-7.443,1.565-14.95,1.567-22.465v-7.314L364.899,208.982z M429.16,128.525
			c-11.795,19.38-35.535,27.875-56.947,20.376l63.739-43.886C435.803,113.314,433.459,121.425,429.16,128.525z"/>
	</g>
</g>
<g>
</g>
<g>
</g>
<g>
</g>
<g>
</g>
<g>
</g>
<g>
</g>
<g>
</g>
<g>
</g>
<g>
</g>
<g>
</g>
<g>
</g>
<g>
</g>
<g>
</g>
<g>
</g>
<g>
</g>
</svg>
