<?xml version="1.0" encoding="iso-8859-1"?>
<!-- Generator: Adobe Illustrator 19.0.0, SVG Export Plug-In . SVG Version: 6.00 Build 0)  -->
<svg version="1.1" id="Layer_1" xmlns="http://www.w3.org/2000/svg" xmlns:xlink="http://www.w3.org/1999/xlink" x="0px" y="0px"
	 viewBox="0 0 511.997 511.997" style="enable-background:new 0 0 511.997 511.997;" xml:space="preserve">
<circle style="fill:#21D0C3;" cx="255.999" cy="255.999" r="255.999"/>
<rect x="61.08" y="68.965" style="fill:#FF5B62;" width="325.832" height="422.792"/>
<polygon style="fill:#DCE3DB;" points="72.807,83.594 365.28,83.594 375.195,479.038 82.721,479.038 "/>
<rect x="77.688" y="83.596" style="fill:#FFFFFF;" width="287.587" height="385.724"/>
<path style="fill:#666666;" d="M186.259,58.687h78.761c5.671,0,10.314,4.64,10.314,10.314v33.853h-99.388V69.001
	C175.945,63.33,180.586,58.687,186.259,58.687z"/>
<path style="fill:#B0B0B0;" d="M173.816,100.299H277.46c2.194,0,3.971,1.778,3.971,3.97l0,0c0,2.193-1.778,3.97-3.971,3.97H173.816
	c-2.194,0-3.971-1.778-3.971-3.97l0,0C169.844,102.076,171.623,100.299,173.816,100.299z"/>
<path style="fill:#FEFEFE;" d="M215.28,48.41l-8.384,51.885h-4.315l8.36-51.755c-2.376-3.298-3.586-7.25-3.586-11.129
	c0-2.486,0.496-4.955,1.495-7.213c1.012-2.282,2.539-4.346,4.588-6.001c6.523-5.265,17.836-5.27,24.362-0.003
	c2.056,1.661,3.588,3.733,4.603,6.02c1.005,2.267,1.503,4.743,1.503,7.24c0,3.866-1.199,7.804-3.567,11.087l8.36,51.757h-4.315
	l-8.384-51.885c-0.126-0.659,0.068-1.303,0.472-1.776c2.12-2.652,3.192-5.943,3.192-9.183c0-1.922-0.377-3.814-1.139-5.532
	c-0.751-1.692-1.875-3.216-3.378-4.427c-4.96-4.003-14.098-3.995-19.056,0.003c-1.498,1.207-2.615,2.726-3.362,4.409
	c-0.759,1.708-1.131,3.594-1.131,5.505c0,3.274,1.097,6.605,3.25,9.275C215.254,47.191,215.39,47.822,215.28,48.41L215.28,48.41z"/>
<g>
	<path style="fill:#C2C2C4;" d="M190.844,196.798h149.923v3.791H190.844V196.798z M190.844,233.369h93.526v3.791h-93.526V233.369z
		 M190.844,215.084h149.923v3.791H190.844V215.084z"/>
	<path style="fill:#C2C2C4;" d="M190.844,293.96h149.923v3.791H190.844V293.96z M190.844,330.53h93.526v3.791h-93.526V330.53z
		 M190.844,312.245h149.923v3.791H190.844V312.245z"/>
	<path style="fill:#C2C2C4;" d="M190.844,391.121h149.923v3.791H190.844V391.121z M190.844,427.691h93.526v3.791h-93.526V427.691z
		 M190.844,409.406h149.923v3.791H190.844V409.406z"/>
</g>
<g>
	<path style="fill:#15BDB2;" d="M125.447,188.767c7.791,0,14.844,3.158,19.948,8.263l-0.003,0.003
		c5.107,5.11,8.268,12.163,8.268,19.945c0,7.791-3.158,14.844-8.263,19.948c-5.104,5.104-12.157,8.263-19.948,8.263
		c-7.783,0-14.836-3.161-19.945-8.268l-0.005,0.005c-5.104-5.104-8.263-12.16-8.263-19.948c0-7.78,3.158-14.833,8.263-19.94
		l0.005-0.005l0.005-0.003c5.107-5.104,12.16-8.263,19.94-8.263H125.447z M142.419,200.006c-4.344-4.343-10.345-7.029-16.971-7.029
		c-6.634,0-12.635,2.684-16.971,7.022l-0.011,0.008c-4.336,4.339-7.022,10.337-7.022,16.971c0,6.626,2.689,12.627,7.032,16.971
		v0.011c4.336,4.336,10.338,7.022,16.971,7.022c6.626,0,12.627-2.689,16.971-7.032c4.343-4.344,7.029-10.345,7.029-16.971
		c0-6.634-2.684-12.632-7.022-16.971h-0.006V200.006z"/>
	<path style="fill:#15BDB2;" d="M125.447,285.931c7.791,0,14.844,3.156,19.948,8.263l-0.003,0.003
		c5.107,5.11,8.268,12.163,8.268,19.945c0,7.791-3.158,14.844-8.263,19.948c-5.104,5.104-12.157,8.263-19.948,8.263
		c-7.783,0-14.836-3.161-19.945-8.268l-0.005,0.005c-5.104-5.104-8.263-12.16-8.263-19.948c0-7.78,3.158-14.833,8.263-19.94
		l0.005-0.005l0.005-0.003c5.107-5.104,12.16-8.263,19.94-8.263H125.447z M142.419,297.171c-4.344-4.343-10.345-7.029-16.971-7.029
		c-6.634,0-12.635,2.684-16.971,7.022l-0.011,0.008c-4.336,4.339-7.022,10.337-7.022,16.971c0,6.626,2.689,12.627,7.032,16.971
		v0.008c4.336,4.335,10.338,7.022,16.971,7.022c6.626,0,12.627-2.689,16.971-7.029c4.343-4.343,7.029-10.345,7.029-16.971
		c0-6.634-2.684-12.632-7.022-16.971h-0.006V297.171z"/>
	<path style="fill:#15BDB2;" d="M125.447,383.093c7.791,0,14.844,3.156,19.948,8.263l-0.003,0.005
		c5.107,5.107,8.268,12.16,8.268,19.943c0,7.791-3.158,14.844-8.263,19.948c-5.104,5.104-12.157,8.263-19.948,8.263
		c-7.783,0-14.836-3.161-19.945-8.268l-0.005,0.005c-5.104-5.104-8.263-12.157-8.263-19.948c0-7.78,3.158-14.833,8.263-19.94
		l0.005-0.003l0.005-0.005c5.107-5.104,12.16-8.263,19.94-8.263H125.447z M142.419,394.332c-4.344-4.343-10.345-7.029-16.971-7.029
		c-6.634,0-12.635,2.684-16.971,7.022l-0.011,0.008c-4.336,4.339-7.022,10.338-7.022,16.971c0,6.626,2.689,12.627,7.032,16.971
		v0.008c4.336,4.339,10.338,7.022,16.971,7.022c6.626,0,12.627-2.689,16.971-7.029c4.343-4.343,7.029-10.345,7.029-16.971
		c0-6.634-2.684-12.632-7.022-16.971h-0.006V394.332z"/>
</g>
<g>
	<path style="fill:#FF5B62;" d="M110.19,219.92c-1.036-0.792-1.236-2.275-0.443-3.311c0.792-1.036,2.277-1.236,3.313-0.443
		l8.15,6.246l12.942-17.527c0.776-1.049,2.256-1.267,3.305-0.49c1.047,0.776,1.267,2.259,0.488,3.305l-14.322,19.402l-0.063,0.084
		c-0.792,1.036-2.277,1.236-3.313,0.443l-10.056-7.706C110.19,219.923,110.19,219.92,110.19,219.92z"/>
	<path style="fill:#FF5B62;" d="M111.803,318.042c-1.036-0.792-1.236-2.277-0.443-3.313c0.792-1.036,2.277-1.236,3.313-0.443
		l8.15,6.246l12.942-17.53c0.776-1.047,2.256-1.267,3.305-0.488c1.047,0.776,1.267,2.259,0.488,3.305l-14.322,19.402l-0.063,0.084
		c-0.792,1.036-2.277,1.236-3.313,0.443L111.803,318.042z"/>
	<path style="fill:#FF5B62;" d="M111.803,415.206c-1.036-0.792-1.236-2.275-0.443-3.31c0.792-1.036,2.277-1.236,3.313-0.443
		l8.15,6.246l12.942-17.53c0.776-1.047,2.256-1.267,3.305-0.488c1.047,0.776,1.267,2.259,0.488,3.305l-14.322,19.402l-0.063,0.084
		c-0.792,1.036-2.277,1.236-3.313,0.443l-10.056-7.706V415.206z"/>
</g>
<rect x="417.931" y="105.404" style="fill:#0F7986;" width="24.834" height="123.458"/>
<g>
	<path style="fill:#FF5B62;" d="M417.928,228.857h24.837l-7.754,24.501h-9.328l-7.754-24.501H417.928z"/>
	<path style="fill:#FF5B62;" d="M423.794,24.195h13.107c3.772,0,6.86,3.087,6.86,6.86v73.995c0,0.197-0.158,0.351-0.351,0.351
		h-26.12c-0.194,0-0.351-0.158-0.351-0.351V31.054c0-3.772,3.087-6.86,6.86-6.86C423.798,24.195,423.794,24.195,423.794,24.195z"/>
</g>
<path style="fill:#ED4C54;" d="M443.757,31.054v74.013c-0.011,0.181-0.152,0.325-0.333,0.333h-0.018h-3.158V25.073
	C442.337,26.251,443.757,28.496,443.757,31.054z"/>
<path style="fill:#EEF3F7;" d="M427.962,253.356h4.772v11.41c0,1.314-1.073,2.384-2.384,2.384h-0.003
	c-1.311,0-2.384-1.07-2.384-2.384V253.356z"/>
<path style="fill:#FAD24D;" d="M416.934,31.447h32.239h1.739v1.83V111v0.711l-0.467,0.533l-3.066,3.483
	c-1.471,1.308-3.982-0.695-2.539-2.489l2.597-2.951V35.109h-30.503v-3.665L416.934,31.447L416.934,31.447z"/>
<rect x="439.689" y="105.404" style="fill:#076673;" width="3.079" height="123.458"/>
<path style="fill:#15BDB2;" d="M143.389,155.274c-1.348,0-2.442-1.094-2.442-2.442s1.094-2.442,2.442-2.442h40.31l9.046-21.923
	c0.511-1.244,1.933-1.836,3.177-1.327c0.638,0.262,1.104,0.765,1.34,1.358l0.008-0.003l13.417,33.874l11.418-19.337
	c0.685-1.157,2.18-1.54,3.339-0.857c0.367,0.218,0.653,0.514,0.857,0.857l6.62,10.151l9.597-10.209
	c0.92-0.978,2.465-1.026,3.446-0.105c0.187,0.176,0.335,0.372,0.456,0.582l3.89,6.943h52.277c1.348,0,2.442,1.094,2.442,2.442
	c0,1.348-1.094,2.442-2.442,2.442h-53.701v-0.005c-0.855,0-1.682-0.448-2.127-1.246l-2.966-5.294l-9.443,10.041l-0.003-0.003
	c-0.131,0.137-0.28,0.267-0.446,0.372c-1.125,0.732-2.636,0.409-3.368-0.716l-6.225-9.547l-11.888,20.132
	c-0.262,0.509-0.701,0.926-1.272,1.152c-1.254,0.493-2.673-0.124-3.169-1.374l-13.031-32.901l-7.3,17.689
	c-0.317,0.978-1.236,1.69-2.321,1.69h-41.937L143.389,155.274z"/>
<g>
</g>
<g>
</g>
<g>
</g>
<g>
</g>
<g>
</g>
<g>
</g>
<g>
</g>
<g>
</g>
<g>
</g>
<g>
</g>
<g>
</g>
<g>
</g>
<g>
</g>
<g>
</g>
<g>
</g>
</svg>
